<svg width="16" height="16" viewBox="0 0 16 16" fill="none" xmlns="http://www.w3.org/2000/svg">
<path d="M7.30772 2.32472C7.56436 1.70995 8.43532 1.70995 8.69195 2.32472L9.87377 5.15577C9.97633 5.40146 10.2015 5.57436 10.4653 5.61007L13.6207 6.03715C14.2709 6.12515 14.5027 6.94663 13.9943 7.36145L11.5744 9.33621C11.3529 9.51695 11.2534 9.80788 11.3179 10.0864L12.0905 13.4253C12.2456 14.0954 11.492 14.6034 10.929 14.2083L8.4307 12.4548C8.17212 12.2733 7.82755 12.2733 7.56898 12.4548L5.07066 14.2083C4.50763 14.6035 3.75404 14.0955 3.90911 13.4253L4.68172 10.0864C4.74616 9.80787 4.64668 9.51695 4.42521 9.33622L2.00531 7.36145C1.49698 6.94663 1.72873 6.12515 2.3789 6.03715L5.53438 5.61007C5.79822 5.57436 6.02334 5.40146 6.12591 5.15577L7.30772 2.32472Z" stroke="#EC8B00" stroke-miterlimit="3.3292" stroke-linecap="round" stroke-linejoin="round"/>
</svg>
